<mxfile host="app.diagrams.net" agent="Mozilla/5.0 (Windows NT 10.0; Win64; x64) AppleWebKit/537.36 (KHTML, like Gecko) Chrome/131.0.0.0 Safari/537.36" version="26.0.5">
  <diagram name="Pagina-1" id="XGrGv0RqAk88M9nYruFX">
    <mxGraphModel dx="2868" dy="-1947" grid="1" gridSize="10" guides="1" tooltips="1" connect="1" arrows="1" fold="1" page="1" pageScale="1" pageWidth="827" pageHeight="1169" math="0" shadow="0">
      <root>
        <mxCell id="0" />
        <mxCell id="1" parent="0" />
        <mxCell id="eVoAQX-6ZCBNMS5bhIUZ-34" value="" style="rounded=1;whiteSpace=wrap;html=1;strokeWidth=2;strokeColor=none;absoluteArcSize=1;arcSize=0;" vertex="1" parent="1">
          <mxGeometry x="140" y="4450" width="990" height="450" as="geometry" />
        </mxCell>
        <mxCell id="eVoAQX-6ZCBNMS5bhIUZ-50" style="edgeStyle=orthogonalEdgeStyle;rounded=0;orthogonalLoop=1;jettySize=auto;html=1;entryX=1;entryY=0.5;entryDx=0;entryDy=0;strokeWidth=2;" edge="1" parent="1" source="eVoAQX-6ZCBNMS5bhIUZ-35" target="eVoAQX-6ZCBNMS5bhIUZ-49">
          <mxGeometry relative="1" as="geometry" />
        </mxCell>
        <mxCell id="eVoAQX-6ZCBNMS5bhIUZ-35" value="&lt;font style=&quot;font-size: 16px;&quot;&gt;X~&lt;/font&gt;" style="ellipse;whiteSpace=wrap;html=1;aspect=fixed;strokeWidth=2;fillColor=#dae8fc;strokeColor=#6c8ebf;" vertex="1" parent="1">
          <mxGeometry x="669" y="4700" width="80" height="80" as="geometry" />
        </mxCell>
        <mxCell id="eVoAQX-6ZCBNMS5bhIUZ-41" style="edgeStyle=orthogonalEdgeStyle;rounded=0;orthogonalLoop=1;jettySize=auto;html=1;entryX=1;entryY=0.5;entryDx=0;entryDy=0;strokeWidth=2;" edge="1" parent="1" source="eVoAQX-6ZCBNMS5bhIUZ-42" target="eVoAQX-6ZCBNMS5bhIUZ-35">
          <mxGeometry relative="1" as="geometry" />
        </mxCell>
        <mxCell id="eVoAQX-6ZCBNMS5bhIUZ-42" value="&lt;font style=&quot;font-size: 16px;&quot;&gt;X&lt;/font&gt;" style="ellipse;whiteSpace=wrap;html=1;aspect=fixed;strokeWidth=2;fillColor=#dae8fc;strokeColor=#6c8ebf;" vertex="1" parent="1">
          <mxGeometry x="826.25" y="4700" width="80" height="80" as="geometry" />
        </mxCell>
        <mxCell id="eVoAQX-6ZCBNMS5bhIUZ-47" value="&lt;span style=&quot;font-size: 16px;&quot;&gt;X~3&lt;/span&gt;" style="ellipse;whiteSpace=wrap;html=1;aspect=fixed;strokeWidth=2;fillColor=#dae8fc;strokeColor=#6c8ebf;" vertex="1" parent="1">
          <mxGeometry x="363.75" y="4700" width="80" height="80" as="geometry" />
        </mxCell>
        <mxCell id="eVoAQX-6ZCBNMS5bhIUZ-48" style="edgeStyle=orthogonalEdgeStyle;rounded=0;orthogonalLoop=1;jettySize=auto;html=1;entryX=1;entryY=0.5;entryDx=0;entryDy=0;strokeWidth=2;" edge="1" parent="1" source="eVoAQX-6ZCBNMS5bhIUZ-49" target="eVoAQX-6ZCBNMS5bhIUZ-47">
          <mxGeometry relative="1" as="geometry" />
        </mxCell>
        <mxCell id="eVoAQX-6ZCBNMS5bhIUZ-49" value="&lt;span style=&quot;font-size: 16px;&quot;&gt;X~2&lt;/span&gt;" style="ellipse;whiteSpace=wrap;html=1;aspect=fixed;strokeWidth=2;fillColor=#dae8fc;strokeColor=#6c8ebf;" vertex="1" parent="1">
          <mxGeometry x="521" y="4700" width="80" height="80" as="geometry" />
        </mxCell>
        <mxCell id="eVoAQX-6ZCBNMS5bhIUZ-52" value="X^" style="text;html=1;align=center;verticalAlign=middle;whiteSpace=wrap;rounded=0;fontSize=16;" vertex="1" parent="1">
          <mxGeometry x="680" y="4780" width="60" height="30" as="geometry" />
        </mxCell>
        <mxCell id="eVoAQX-6ZCBNMS5bhIUZ-53" value="X^1" style="text;html=1;align=center;verticalAlign=middle;whiteSpace=wrap;rounded=0;fontSize=16;" vertex="1" parent="1">
          <mxGeometry x="680" y="4800" width="60" height="30" as="geometry" />
        </mxCell>
        <mxCell id="eVoAQX-6ZCBNMS5bhIUZ-54" value="X~1" style="text;html=1;align=center;verticalAlign=middle;whiteSpace=wrap;rounded=0;fontSize=16;" vertex="1" parent="1">
          <mxGeometry x="679" y="4820" width="60" height="30" as="geometry" />
        </mxCell>
        <mxCell id="eVoAQX-6ZCBNMS5bhIUZ-55" value="X~~" style="text;html=1;align=center;verticalAlign=middle;whiteSpace=wrap;rounded=0;fontSize=16;" vertex="1" parent="1">
          <mxGeometry x="531" y="4780" width="60" height="30" as="geometry" />
        </mxCell>
        <mxCell id="eVoAQX-6ZCBNMS5bhIUZ-56" value="X~~~" style="text;html=1;align=center;verticalAlign=middle;whiteSpace=wrap;rounded=0;fontSize=16;" vertex="1" parent="1">
          <mxGeometry x="373.75" y="4780" width="60" height="30" as="geometry" />
        </mxCell>
        <mxCell id="eVoAQX-6ZCBNMS5bhIUZ-57" value="X~2~" style="text;html=1;align=center;verticalAlign=middle;whiteSpace=wrap;rounded=0;fontSize=16;" vertex="1" parent="1">
          <mxGeometry x="374" y="4800" width="60" height="30" as="geometry" />
        </mxCell>
        <mxCell id="eVoAQX-6ZCBNMS5bhIUZ-59" value="" style="curved=1;endArrow=none;html=1;rounded=0;entryX=0;entryY=0.5;entryDx=0;entryDy=0;strokeWidth=2;endFill=0;exitX=1.008;exitY=0.465;exitDx=0;exitDy=0;exitPerimeter=0;startArrow=classic;startFill=1;" edge="1" parent="1" source="eVoAQX-6ZCBNMS5bhIUZ-60" target="eVoAQX-6ZCBNMS5bhIUZ-42">
          <mxGeometry width="50" height="50" relative="1" as="geometry">
            <mxPoint x="680" y="4560" as="sourcePoint" />
            <mxPoint x="826.25" y="4737" as="targetPoint" />
            <Array as="points">
              <mxPoint x="780" y="4627" />
              <mxPoint x="790" y="4740" />
            </Array>
          </mxGeometry>
        </mxCell>
        <mxCell id="eVoAQX-6ZCBNMS5bhIUZ-60" value="&lt;span style=&quot;font-size: 16px;&quot;&gt;X^2&lt;/span&gt;" style="ellipse;whiteSpace=wrap;html=1;aspect=fixed;strokeWidth=2;fillColor=#dae8fc;strokeColor=#6c8ebf;" vertex="1" parent="1">
          <mxGeometry x="669" y="4590" width="80" height="80" as="geometry" />
        </mxCell>
        <mxCell id="eVoAQX-6ZCBNMS5bhIUZ-61" value="" style="curved=1;endArrow=none;html=1;rounded=0;entryX=0;entryY=0.5;entryDx=0;entryDy=0;strokeWidth=2;endFill=0;startArrow=classic;startFill=1;" edge="1" parent="1" target="eVoAQX-6ZCBNMS5bhIUZ-42">
          <mxGeometry width="50" height="50" relative="1" as="geometry">
            <mxPoint x="749" y="4520" as="sourcePoint" />
            <mxPoint x="826.25" y="4633" as="targetPoint" />
            <Array as="points">
              <mxPoint x="780.25" y="4520" />
              <mxPoint x="800" y="4740" />
            </Array>
          </mxGeometry>
        </mxCell>
        <mxCell id="eVoAQX-6ZCBNMS5bhIUZ-62" value="&lt;span style=&quot;font-size: 16px;&quot;&gt;X^3&lt;/span&gt;" style="ellipse;whiteSpace=wrap;html=1;aspect=fixed;strokeWidth=2;fillColor=#dae8fc;strokeColor=#6c8ebf;" vertex="1" parent="1">
          <mxGeometry x="669" y="4480" width="80" height="80" as="geometry" />
        </mxCell>
        <mxCell id="eVoAQX-6ZCBNMS5bhIUZ-63" style="edgeStyle=orthogonalEdgeStyle;rounded=0;orthogonalLoop=1;jettySize=auto;html=1;entryX=1;entryY=0.5;entryDx=0;entryDy=0;strokeWidth=2;" edge="1" parent="1" target="eVoAQX-6ZCBNMS5bhIUZ-64">
          <mxGeometry relative="1" as="geometry">
            <mxPoint x="668" y="4630" as="sourcePoint" />
          </mxGeometry>
        </mxCell>
        <mxCell id="eVoAQX-6ZCBNMS5bhIUZ-64" value="&lt;span style=&quot;font-size: 16px;&quot;&gt;X^2~&lt;/span&gt;" style="ellipse;whiteSpace=wrap;html=1;aspect=fixed;strokeWidth=2;fillColor=#dae8fc;strokeColor=#6c8ebf;" vertex="1" parent="1">
          <mxGeometry x="520" y="4590" width="80" height="80" as="geometry" />
        </mxCell>
      </root>
    </mxGraphModel>
  </diagram>
</mxfile>
